<?xml version="1.0" standalone="no"?>
<!DOCTYPE svg PUBLIC "-//W3C//DTD SVG 20010904//EN"
 "http://www.w3.org/TR/2001/REC-SVG-20010904/DTD/svg10.dtd">
<svg version="1.0" xmlns="http://www.w3.org/2000/svg"
 width="842.000000pt" height="596.000000pt" viewBox="0 0 842.000000 596.000000"
 preserveAspectRatio="xMidYMid meet">

<g transform="translate(0.000000,596.000000) scale(0.100000,-0.100000)"
fill="#000000" stroke="none">
<path d="M2424 3792 c-9 -6 -134 -218 -134 -227 0 -2 17 1 38 7 21 6 88 8 155
6 l117 -5 -23 41 c-13 23 -39 68 -57 101 -43 79 -66 97 -96 77z"/>
<path d="M2707 2933 c8 -5 -13 -7 -51 -5 -71 5 -240 -19 -348 -49 -255 -71
-557 -242 -622 -352 -24 -43 -34 -77 -20 -77 3 0 32 23 63 52 221 203 513 348
810 403 113 21 145 18 46 -5 -285 -64 -537 -202 -765 -417 -39 -36 -70 -71
-70 -77 0 -7 19 -21 43 -33 l42 -20 101 101 c120 121 248 214 404 295 167 86
245 111 520 169 l45 10 -65 1 c-36 1 -83 4 -105 7 -24 3 -35 2 -28 -3z"/>
<path d="M2804 2891 c-305 -79 -544 -219 -769 -452 l-109 -113 33 -13 c74 -30
83 -29 124 26 105 137 342 328 521 418 92 46 223 96 314 119 40 10 71 23 69
29 -7 19 -73 14 -183 -14z"/>
<path d="M2905 2846 c-279 -102 -531 -284 -720 -521 l-48 -60 39 -7 c84 -15
86 -14 157 75 154 195 400 380 629 473 63 26 66 28 56 50 -6 13 -14 24 -17 24
-3 -1 -46 -16 -96 -34z"/>
<path d="M1820 2755 c-29 -50 -61 -101 -69 -115 -11 -16 4 -8 45 26 34 28 72
59 85 67 22 16 22 18 8 64 l-15 48 -54 -90z"/>
<path d="M2965 2762 c-108 -57 -232 -143 -325 -225 -79 -69 -204 -207 -245
-269 l-17 -28 69 0 69 0 49 67 c57 78 197 220 276 280 29 23 94 67 143 97 50
31 92 58 94 60 5 5 -28 56 -37 56 -3 0 -38 -17 -76 -38z"/>
<path d="M3025 2643 c-44 -32 -122 -98 -174 -148 -94 -90 -216 -233 -207 -242
3 -3 36 0 75 7 65 11 73 15 103 53 70 91 257 270 326 313 3 1 -38 74 -41 74
-1 0 -38 -26 -82 -57z"/>
<path d="M3060 2452 c-66 -67 -120 -127 -120 -132 0 -9 73 15 160 53 19 9 57
38 83 65 l48 49 -25 44 -26 44 -120 -123z"/>
</g>
</svg>
